<svg width="50" height="50" viewBox="0 0 50 50" fill="none" xmlns="http://www.w3.org/2000/svg">
<path d="M43.4167 9.60419C42.3526 8.53961 41.0892 7.69512 39.6987 7.11894C38.3081 6.54277 36.8177 6.24622 35.3125 6.24622C33.8073 6.24622 32.3169 6.54277 30.9264 7.11894C29.5358 7.69512 28.2724 8.53961 27.2084 9.60419L25 11.8125L22.7917 9.60419C20.6423 7.45483 17.7272 6.24733 14.6875 6.24733C11.6479 6.24733 8.73272 7.45483 6.58336 9.60419C4.434 11.7535 3.2265 14.6687 3.2265 17.7084C3.2265 20.748 4.434 23.6632 6.58336 25.8125L8.79169 28.0208L25 44.2292L41.2084 28.0208L43.4167 25.8125C44.4813 24.7484 45.3258 23.485 45.9019 22.0945C46.4781 20.704 46.7747 19.2135 46.7747 17.7084C46.7747 16.2032 46.4781 14.7127 45.9019 13.3222C45.3258 11.9317 44.4813 10.6683 43.4167 9.60419V9.60419Z" stroke="url(#paint0_linear_191725_3673)" stroke-width="3" stroke-linecap="round" stroke-linejoin="round"/>
<defs>
<linearGradient id="paint0_linear_191725_3673" x1="40.0247" y1="11.3739" x2="15.8404" y2="43.3349" gradientUnits="userSpaceOnUse">
<stop stop-color="#EB3850"/>
<stop offset="1" stop-color="#CB162E"/>
</linearGradient>
</defs>
</svg>
